leg6dof9musc_knee_stop_states
version=1
nRows=14
nColumns=41
inDegrees=yes

# SIMM Motion File Header:
name leg6dof9musc_knee_stop_states
datacolumns 41
datarows 14
otherdata 1
range 0.10000000 0.11862293
endheader
time	/jointset/ground_pelvis/turn/value	/jointset/ground_pelvis/turn/speed	/jointset/hip_r/hip_flexion_r/value	/jointset/hip_r/hip_flexion_r/speed	/jointset/knee_r/knee_angle_r/value	/jointset/knee_r/knee_angle_r/speed	/jointset/tib_pat_r/knee_angle_pat_r/value	/jointset/tib_pat_r/knee_angle_pat_r/speed	/jointset/ankle_r/ankle_angle_r/value	/jointset/ankle_r/ankle_angle_r/speed	/jointset/free/ball_rx/value	/jointset/free/ball_rx/speed	/jointset/free/ball_ry/value	/jointset/free/ball_ry/speed	/jointset/free/ball_rz/value	/jointset/free/ball_rz/speed	/jointset/free/ball_tx/value	/jointset/free/ball_tx/speed	/jointset/free/ball_ty/value	/jointset/free/ball_ty/speed	/jointset/free/ball_tz/value	/jointset/free/ball_tz/speed	/forceset/bifemlh_r/activation	/forceset/bifemlh_r/fiber_length	/forceset/bifemsh_r/activation	/forceset/bifemsh_r/fiber_length	/forceset/glut_max2_r/activation	/forceset/glut_max2_r/fiber_length	/forceset/psoas_r/activation	/forceset/psoas_r/fiber_length	/forceset/rect_fem_r/activation	/forceset/rect_fem_r/fiber_length	/forceset/vas_int_r/activation	/forceset/vas_int_r/fiber_length	/forceset/med_gas_r/activation	/forceset/med_gas_r/fiber_length	/forceset/soleus_r/activation	/forceset/soleus_r/fiber_length	/forceset/tib_ant_r/activation	/forceset/tib_ant_r/fiber_length
      0.10000000	      0.00000000	      0.00000000	    -39.99999938	      0.00000000	   -109.99999500	      0.00000000	     -1.91986209	      0.00000000	    -10.00000371	      0.00000000	     -0.00000000	      0.00000000	     -0.00000000	      0.00000000	      0.00000057	      0.00000000	      0.70000000	      0.00000000	      0.12000000	      0.00000000	     -0.05000000	      0.00000000	      0.05000000	      0.02364349	      0.05000000	      0.14562080	      0.05000000	      0.04505574	      0.05000000	      0.13257404	      0.05000000	      0.21141927	      0.05000000	      0.15808583	      0.05000000	      0.05871820	      0.05000000	      0.08069560	      0.05000000	      0.09600512
      0.10065021	      0.00006596	      0.20233696	    -39.99955414	      1.36805702	   -109.99826350	      5.31961065	     -1.91983187	      0.09284472	    -10.01745306	    -53.52861078	      0.00000000	      0.00000118	     -0.00000000	     -0.00000000	      0.00000057	      0.00000236	      0.70000000	     -0.00000000	      0.11999793	     -0.00637602	     -0.05000000	      0.00000000	      0.14116401	      0.02359680	      0.14116401	      0.14555388	      0.04987211	      0.04505579	      0.14116401	      0.13253640	      0.14116401	      0.21137879	      0.04953512	      0.15808593	      0.14116401	      0.05867999	      0.04953512	      0.08069557	      0.14116401	      0.09596503
      0.10130041	      0.00026172	      0.39822301	    -39.99822441	      2.71717536	   -109.99309429	     10.56078559	     -1.91974165	      0.18432048	    -10.06923985	   -105.33909930	      0.00000000	      0.00001891	     -0.00000000	      0.00000000	      0.00000058	      0.00003782	      0.70000000	     -0.00000000	      0.11999171	     -0.01274742	     -0.05000000	      0.00000000	      0.21114632	      0.02348798	      0.21114632	      0.14542091	      0.04974545	      0.04505599	      0.21114632	      0.13245419	      0.21114632	      0.21130465	      0.04907512	      0.15808610	      0.21114632	      0.05858770	      0.04907512	      0.08069474	      0.21114632	      0.09587177
      0.10216584	      0.00071246	      0.63869085	    -39.99511751	      4.44689641	   -109.98102124	     17.27843045	     -1.91953094	      0.30156550	    -10.18844312	   -168.85875245	      0.00000006	      0.00014559	      0.00000000	      0.00000000	      0.00000070	      0.00029118	      0.70000000	     -0.00000000	      0.11997702	     -0.02119899	     -0.05000000	      0.00000000	      0.28555984	      0.02328955	      0.28555984	      0.14522640	      0.04957876	      0.04505658	      0.28555984	      0.13231581	      0.28555984	      0.21119485	      0.04847031	      0.15808617	      0.28555984	      0.05840975	      0.04847031	      0.08069031	      0.28555984	      0.09570375
      0.10337925	      0.00166388	      0.91596626	    -39.98834693	      6.66529981	   -109.95471026	     25.90883768	     -1.91907172	      0.45219452	    -10.43977042	   -241.72968729	      0.00000058	      0.00086104	      0.00000000	      0.00000000	      0.00000174	      0.00172208	      0.70000000	     -0.00000004	      0.11994417	     -0.03289813	     -0.05000000	      0.00000002	      0.36786811	      0.02295829	      0.36786811	      0.14498765	      0.04934862	      0.04505822	      0.36786811	      0.13210560	      0.36786811	      0.21103979	      0.04763641	      0.15808476	      0.36786811	      0.05808581	      0.04763641	      0.08067266	      0.36786811	      0.09543339
      0.10507300	      0.00343817	      1.14541402	    -39.97480698	      9.20256621	   -109.90204052	     35.82128778	     -1.91815246	      0.62519941	    -10.90684501	   -300.60700498	      0.00000441	      0.00431942	      0.00000000	      0.00000000	      0.00000939	      0.00863883	      0.70000000	     -0.00000107	      0.11987505	     -0.04853013	     -0.05000000	      0.00000053	      0.45658491	      0.02246217	      0.45658491	      0.14475147	      0.04903423	      0.04506258	      0.45658491	      0.13182264	      0.45658491	      0.21083283	      0.04649925	      0.15807785	      0.45658491	      0.05753254	      0.04649925	      0.08061124	      0.45658491	      0.09506522
      0.10676676	      0.00542130	      1.15894020	    -39.95760824	     10.97484364	   -109.83507830	     42.71831227	     -1.91698375	      0.74557520	    -11.42459412	   -300.55009771	      0.00001831	      0.01327647	      0.00000000	      0.00000000	      0.00003720	      0.02655294	      0.69999999	     -0.00000949	      0.11978068	     -0.06253790	     -0.05000000	      0.00000475	      0.52606068	      0.02197741	      0.52606068	      0.14460456	      0.04872763	      0.04506982	      0.52606068	      0.13157209	      0.52606068	      0.21063964	      0.04539246	      0.15806405	      0.52606068	      0.05690142	      0.04539246	      0.08048793	      0.52606068	      0.09476310
      0.10846051	      0.00723886	      0.95249673	    -39.93805912	     11.99349343	   -109.75913929	     46.44204180	     -1.91565836	      0.81056654	    -11.89076103	   -240.43793462	      0.00005429	      0.03091142	      0.00000000	      0.00000000	      0.00010915	      0.06182283	      0.69999995	     -0.00004538	      0.11966475	     -0.07379318	     -0.04999998	      0.00002269	      0.58263505	      0.02153028	      0.58263505	      0.14451355	      0.04842862	      0.04508017	      0.58263505	      0.13135788	      0.58263505	      0.21045984	      0.04431509	      0.15804362	      0.58263505	      0.05623105	      0.04431509	      0.08029592	      0.58263505	      0.09454152
      0.11015427	      0.00854727	      0.57126286	    -39.91729369	     12.47187057	   -109.67925324	     47.56463285	     -1.91426409	      0.83015945	    -12.21192055	   -133.23121957	      0.00012969	      0.06036323	      0.00000000	      0.00000000	      0.00025995	      0.12072645	      0.69999981	     -0.00013970	      0.11953297	     -0.08104887	     -0.04999990	      0.00006985	      0.62987362	      0.02113068	      0.62987362	      0.14445152	      0.04813699	      0.04509353	      0.62987362	      0.13117361	      0.62987362	      0.21029255	      0.04326622	      0.15801802	      0.62987362	      0.05556366	      0.04326622	      0.08006224	      0.62987362	      0.09438204
      0.11221013	      0.00916504	      0.03168685	    -39.89114160	     13.04030098	   -109.58135572	     47.67666117	     -1.91255546	      0.83211471	    -12.33281464	     14.03911474	      0.00030735	      0.11668686	      0.00000000	      0.00000000	      0.00061527	      0.23337369	      0.69999931	     -0.00036161	      0.11936307	     -0.08282449	     -0.04999966	      0.00018081	      0.67782777	      0.02071135	      0.67782777	      0.14439651	      0.04779267	      0.04511324	      0.67782777	      0.13097786	      0.67782777	      0.21010506	      0.04203011	      0.15798269	      0.67782777	      0.05482238	      0.04203011	      0.07980047	      0.67782777	      0.09422136
      0.11396848	      0.00886734	     -0.34611403	    -39.86732651	     14.20440065	   -109.49676963	     48.86305745	     -1.91107915	      0.85282124	    -12.21641772	    110.45353301	      0.00057052	      0.18610741	      0.00000001	      0.00000000	      0.00114162	      0.37221479	      0.69999843	     -0.00065036	      0.11922136	     -0.07722710	     -0.04999922	      0.00032518	      0.71252132	      0.02040637	      0.71252132	      0.14436072	      0.04750634	      0.04513272	      0.71252132	      0.13082889	      0.71252132	      0.20995707	      0.04100399	      0.15795049	      0.71252132	      0.05429545	      0.04100399	      0.07964500	      0.71252132	      0.09408117
      0.11572683	      0.00806209	     -0.53149005	    -39.84050028	     16.53216622	   -109.40796375	     52.66426375	     -1.90952920	      0.91916480	    -11.98083456	    145.41217298	      0.00097391	      0.27602807	      0.00000002	      0.00000000	      0.00194839	      0.55205609	      0.69999697	     -0.00102546	      0.11909547	     -0.06487391	     -0.04999849	      0.00051273	      0.74258693	      0.02014584	      0.74258693	      0.14433264	      0.04722732	      0.04515462	      0.74258693	      0.13069350	      0.74258693	      0.20981903	      0.04000560	      0.15791671	      0.74258693	      0.05388708	      0.04000560	      0.07955825	      0.74258693	      0.09392238
      0.11748518	      0.00714061	     -0.47833544	    -39.80836557	     20.24102282	   -109.30967136	     59.63681376	     -1.90781367	      1.04085876	    -11.74983328	    105.26493241	      0.00155209	      0.38435965	      0.00000004	      0.00000000	      0.00310476	      0.76871925	      0.69999478	     -0.00147655	      0.11899678	     -0.04647258	     -0.04999739	      0.00073827	      0.76884987	      0.01992478	      0.76884987	      0.14431122	      0.04695540	      0.04517962	      0.76884987	      0.13056924	      0.76884987	      0.20968921	      0.03903405	      0.15788026	      0.76884987	      0.05358667	      0.03903405	      0.07952194	      0.76884987	      0.09374409
      0.11862293	      0.00667006	     -0.33859222	    -39.78365308	     23.26277898	   -109.23855575	     65.50100929	     -1.90657247	      1.14320828	    -11.66198891	     45.84445346	      0.00203315	      0.46208605	      0.00000007	      0.00000000	      0.00406688	      0.92417205	      0.69999292	     -0.00180069	      0.11895196	     -0.03205018	     -0.04999646	      0.00090035	      0.78411887	      0.01980061	      0.78411887	      0.14430075	      0.04678316	      0.04519805	      0.78411887	      0.13049380	      0.78411887	      0.20960866	      0.03841931	      0.15785431	      0.78411887	      0.05343514	      0.03841931	      0.07951417	      0.78411887	      0.09362454
